<svg data-bbox="22 22 156 156" viewBox="0 0 200 200" height="200" width="200" xmlns="http://www.w3.org/2000/svg" data-type="color">
    <g>
        <path d="M100 22.9l77.1 77.1-77.1 77.1L22.9 100 100 22.9z" fill="#666666" data-color="1"/>
        <path d="M102.6 104.8c.5-.5.8-1.1.6-1.6-.4-1.2.7-1.8 1.6-1.6.9.2 1.8-.3 1.6-.9-.2-.6-.7-2.4.2-3.2.9-.8 1.2-1.5.5-1.8-.7-.3-1.5-.7-1.4-2.2.1-1.5.6-2.3 1.5-2.4.8-.2 2.1 1 2.8.5.7-.5 1.1-1.4 2.4-1.3 1.4.1 1.7 1.8 2.6 1.2.9-.7 1.5-2.8 1.1-3.5s-.3-2 1.1-2.4c1.4-.5 3.4.2 3.9-.8s1-3.2 2.6-3.2 5.3.3 4.8 3.1c-.5 2.8-.6 4.4 1.1 4.4s2.4-1.3 2.1-2 .4-1.9 1.4-2c1-.1 2.6.5 2.4 1.6-.3 1.1 1.2 2.3 2.6 1 1.5-1.2 1.5-1.7 1.2-2.7-.3-1-.2-2.3 1.2-2.6 1.3-.4 2.4-.9 2.4-1.9-.1-1 .5-2.4 1.5-2.5 1.2-.2 2.5-.5 2.5-1.6 0-1.2.4-3-1.7-3.6-2-.6-1.4-2.6-.5-3.5.1-.2.3-.4.4-.5l31.6 31.6-29.7 29.7-65.1-.5s-3.4-.1-3.9-2.3c-.5-2.2 1.5-2.4 2.1-2.3.6.2 2.8-.4 3-1.7.3-1.4-.2-2.2 1.1-3l-42.4-.8L22.5 100l33.8-33.8c.4.5 1 .8 1.5 1 .8.4 2.8.3 3.6-.3.8-.5 2.1-.7 2.7-1.1.6-.4 1.4-.5 2.4-.8 1.1-.4 2.1.7 2.1.7s.8 1.2 1.1 2.1c.3.9-.9 2.8-.9 2.8s0 1.2.5 2.4 1.4 2 2.1 2c.7 0 2.4.1 3.3 1.2.8 1.1 0 1.9-.3 2.5-.3.7.7 1.6 1.3 2.4.5.8 3-.1 3.8-.5.8-.4 4-.3 4.8 1.2.8 1.4 0 3.2.7 4.4.7 1.3 4.1 0 5.4 0s1.5 1.5 2.1 2.8c.5 1.3 1.3 2 .5 3-.7 1.1-2.9 1.1-3 2.4-.1 1.4.4 1.1 1.1 1.5s2 .9 2.5.4 3.2-.3 4.1.5c.9.8.4 2.2.1 3.8-.3 1.6.1 2.2.9 3.4.8 1.3 2.4 0 3.6.4 0 .3.3.4.3.4z" fill="#f9f7f7" data-color="2"/>
        <path d="M100.5 22.5l-.5-.5-77.5 77.5-.5.5 78 78 78-78-77.5-77.5zm-.5 1.3l76.2 76.2-18.9 18.9-4.5-9.3-.1-.1-.1-.1-4.8-5.8-.8-1-.7 1-2.4 3.3-4.5 3.4-7.7-11.2-5-10.8-.1-.1-.1-.1-5-6.1-.5-.5-.6.3-1.2.5-5.2-11-.1-.1-.1-.1-3.2-3.4-.7-.8-.7.9-5.3 6.6-.1.1v.1l-6.7 12.2-3 1.5-.2.1-.2.2-8.8 12.2-2.6-4.3v-.2l-5.4-6.6-.7-.9-.7.8-3 3.4-6.6 5-2.4-1.5-.6-.4-.5.5-10.3 11.1-7.8 3.2h-.1l-.1.1-5.4 3.5L23.8 100 100 23.8z" fill="#1a1a1a" data-color="3"/>
        <path d="M63.4 101l-1.8-.1 1.3-1.6v-1.9l-10.4 11.2-6.3 4.1-4.7 1.2-2.8 1.9.8 1 5.4-1.7-.9 3.6 4.9-4.8 6.3-2.7 1.5-1.5-2.4-.5 2.9-2.8 4.7-1.8 2.9 1.1.2-.1-2.1 1.3 3-.2-1 .8-1.9 4.1 2.7-1.2-2.1 4.8-3.3 4.2 3-1.8 2.2-2.6-.6 2.3.2 1.6 2.5-3.5 3.5-2.8h-1.5l-3.1.6 2.3-3.3 4.4-2.2.8-1-3.5.7-3.7 1.4 1.1-1.7 2.5-1.4 1.5-2.9-4.5 1.8 1.4-3.4 4.2-4.1 2.1-1.6-1.6.2 2.4-2.8.6-2.5-10.2 8.9-2.9 1.7z" fill="#f9f7f7" data-color="2"/>
        <path d="M110.5 86.9l-.4-6.5-1.9 2.2H106l2.4-2.9.3-2.6-.3-2 1.7-3.2-.4-3.4-5.3 6.6L98 87l-2 3.9-1.4-1.8-9.7 13.2 1.5 1.1-.7 2.8 4.3-1.8 2.9-3.7-1.8 4.2-2.2 3.3.5 1.5-.7 5.3 3-1.9 1.5-1.7 2.7-4.7 5.8-5.2 2.6-4.6 4.4-2.5 1.8-7.5z" fill="#f9f7f7" data-color="2"/>
        <path d="M118.8 98.3l-3.4 2-3.4 3.2-1.3 3.9-2.8 4-1.1 4.9 1.9-4.1 2.4-1.3 3.3-3.3-1 3 2.1-1.4 1.5-2.9-.4-4.4-1.2.8 1.1-2.7c-.1 0 2.3-1.7 2.3-1.7z" fill="#f9f7f7" data-color="2"/>
        <path d="M121.5 93.4l2.8-3.1-3.2 1.7 1-2.9-1.4-.1 2.6-3.1-2.6-3.3-.1 3.4-1.7 1.1v1.4l.2 3.4-2.5 1.9-1.5 2.5 2.4-1.8c.1.1 4-1.1 4-1.1z" fill="#f9f7f7" data-color="2"/>
        <path d="M137 113.9l-2 2.8 2.1.4-2.5 1.8-2.7.9-4.2 2.8-2.1 1.4-1.2 2.4 1.7-.6-3.1 4.1-2 .9 2.9.1 2.4-3.1 6.8-4.5.7 1.2 3.1-3.5 2.4-.4 3.2-2.7 1.2-1.8-2.3-.4 3-5.3 2.2-1.9.5-4.3-2.7 3.7-7.4 6z" fill="#f9f7f7" data-color="2"/>
        <path d="M140.5 120.9l-1.6 1.8-.1 3.4 2.9-3.8 2.4-.6 1.5-3-2 1.1-3.1 1.1z" fill="#f9f7f7" data-color="2"/>
        <path d="M86.5 72.8c0 .5-.4.8-.8.8-.5 0-.8-.4-.8-.8 0-.5.4-.8.8-.8s.8.3.8.8z" fill="#f9f7f7" data-color="2"/>
        <path d="M112.3 43.6c0 .3-.2.5-.5.5s-.5-.2-.5-.5.2-.5.5-.5c.3-.1.5.2.5.5z" fill="#f9f7f7" data-color="2"/>
        <path d="M101.1 40.6c0 .7-.5 1.2-1.2 1.2s-1.2-.5-1.2-1.2.5-1.2 1.2-1.2 1.2.5 1.2 1.2z" fill="#f9f7f7" data-color="2"/>
        <path d="M127 68.1c0 .7-.5 1.2-1.2 1.2s-1.2-.5-1.2-1.2.5-1.2 1.2-1.2 1.2.5 1.2 1.2z" fill="#f9f7f7" data-color="2"/>
        <path d="M86.8 47.3c0 .3-.2.5-.5.5s-.5-.2-.5-.5.2-.5.5-.5.5.3.5.5z" fill="#f9f7f7" data-color="2"/>
        <path d="M79.7 64.4c0 .2-.1.3-.3.3-.2 0-.3-.1-.3-.3 0-.2.1-.3.3-.3.2 0 .3.1.3.3z" fill="#f9f7f7" data-color="2"/>
        <path d="M98.6 71.4c0 .2-.1.3-.3.3-.2 0-.3-.1-.3-.3 0-.2.1-.3.3-.3.2.1.3.2.3.3z" fill="#f9f7f7" data-color="2"/>
        <path d="M115.7 56c0 .2-.1.3-.3.3-.2 0-.3-.1-.3-.3 0-.2.1-.3.3-.3.2 0 .3.2.3.3z" fill="#f9f7f7" data-color="2"/>
        <path d="M96.6 58.8s-.1.5.5.5c.5-.1 4.7-4 4.7-4s-4.6 3-5.2 3.5z" fill="#f9f7f7" data-color="2"/>
    </g>
</svg>
